<svg width="296" height="296" viewBox="0 0 296 296" fill="none" xmlns="http://www.w3.org/2000/svg">
<path d="M63.3281 0.5L63.4717 0.75L85.9209 39.6533H113.591L136.104 0.75L136.248 0.5H159.418L159.562 0.75L182.011 39.6533H209.681L232.173 0.75L232.317 0.5H295.145V147.836C295.144 187.925 278.926 224.397 252.75 251.013L252.289 251.481L251.96 250.912L170.004 108.933L169.859 108.683L170.004 108.433L181.312 88.8555L181.744 88.1055L182.177 88.8555L255.067 215.162C267.413 195.616 274.551 172.524 274.551 147.857V21.0771H244.158L221.71 59.9795L221.565 60.2305H170.127L169.982 59.9795L147.821 21.5762L125.662 59.9795L125.518 60.2305H74.0791L73.9346 59.9795L51.4863 21.0771H21.0938V147.836C21.0938 172.523 28.2517 195.614 40.5762 215.14L113.467 88.834L113.9 88.084L114.333 88.834L221.58 274.629L221.829 275.061L221.398 275.312C175.885 301.756 119.717 301.756 74.2031 275.312L73.7715 275.061L74.0215 274.629L113.468 206.294L113.9 205.544L114.333 206.294L125.641 225.871L125.785 226.121L125.641 226.371L102.649 266.182C131.667 277.338 163.934 277.338 192.951 266.182L113.899 129.216L43.6846 250.868L43.3555 251.438L42.8945 250.969C16.7186 224.353 0.500103 187.882 0.5 147.793V0.5H63.3281Z" fill="#29294F" stroke="#29294F" style="fill:#29294F;fill:color(display-p3 0.1608 0.1608 0.3098);fill-opacity:1;stroke:#29294F;stroke:color(display-p3 0.1608 0.1608 0.3098);stroke-opacity:1;"/>
</svg>
